Coordinates
version=1
nRows=7
nColumns=40
inDegrees=yes

Units are S.I. units (second, meters, Newtons, ...)
Angles are in degrees.

endheader
time	pelvis_tilt	pelvis_list	pelvis_rotation	pelvis_tx	pelvis_ty	pelvis_tz	hip_flexion_r	hip_adduction_r	hip_rotation_r	knee_angle_r	knee_angle_r_beta	ankle_angle_r	subtalar_angle_r	mtp_angle_r	hip_flexion_l	hip_adduction_l	hip_rotation_l	knee_angle_l	knee_angle_l_beta	ankle_angle_l	subtalar_angle_l	mtp_angle_l	lumbar_extension	lumbar_bending	lumbar_rotation	arm_flex_r	arm_add_r	arm_rot_r	elbow_flex_r	pro_sup_r	wrist_flex_r	wrist_dev_r	arm_flex_l	arm_add_l	arm_rot_l	elbow_flex_l	pro_sup_l	wrist_flex_l	wrist_dev_l
     39.48000000	     -4.09830807	     -4.20858549	     10.55291304	      0.89052110	      0.91944495	      0.54973047	      7.66340925	      6.03358533	    -15.39408495	     19.19880224	     19.19880224	     18.19376263	     -7.73693986	     -1.37273980	     29.36938147	     -9.30507752	      2.00502471	     17.49822899	     17.49822899	      4.70087213	     -0.34145012	      5.06598185	     -8.30398502	      4.24052956	      2.46088170	     53.20933514	    -19.59899442	    -11.16836246	     67.23682099	     45.12004745	      0.00000000	      0.00000000	    -15.21175969	     -8.59364303	     20.19040749	     29.03532707	     43.15647151	      0.00000000	      0.00000000
     39.50357143	     -4.01391887	     -4.41440991	     10.52529687	      0.89099097	      0.91918190	      0.54785702	      6.85710671	      6.27755738	    -15.54684621	     18.50081065	     18.50081065	     18.33747455	     -7.13833377	     -1.42069965	     29.01330263	     -9.37174195	      1.95905811	     17.59988693	     17.59988693	      4.18867929	     -0.19485406	      3.70128752	     -8.38005932	      4.29101514	      2.32880241	     53.57663155	    -18.97690612	    -10.87691712	     67.70171554	     45.10177762	      0.00000000	      0.00000000	    -14.63950448	     -8.54782320	     20.34943143	     28.71208726	     43.18248343	      0.00000000	      0.00000000
     39.52714286	     -4.19806757	     -4.47121652	     10.40399560	      0.89159610	      0.91849170	      0.54584259	      6.59262497	      6.26060579	    -15.37566911	     18.38661630	     18.38661630	     18.64689704	     -7.05710819	     -1.50998528	     28.87093457	     -9.25870945	      1.98286319	     17.81717937	     17.81717937	      4.01514896	     -0.23381318	      3.55783597	     -8.12080936	      4.10854587	      2.43418620	     53.63334672	    -18.66756839	    -10.75124722	     67.75895907	     45.09588678	      0.00000000	      0.00000000	    -14.07773742	     -8.70077990	     20.31791792	     28.80749727	     43.19912526	      0.00000000	      0.00000000
     39.55071429	     -4.14622309	     -4.66217576	     10.24913026	      0.89272079	      0.91810653	      0.54365560	      5.80216592	      6.45424111	    -15.42971964	     17.76415411	     17.76415411	     18.76567448	     -6.44931316	     -1.50795325	     28.66379548	     -9.33723269	      2.16000884	     18.39503006	     18.39503006	      3.39197919	     -0.78024350	      1.97147613	     -8.13513106	      4.09148350	      2.46828262	     53.65886799	    -18.22482285	    -10.45148806	     68.02173382	     45.08271340	      0.00000000	      0.00000000	    -13.40671985	     -8.81113484	     20.37348011	     28.43470519	     43.23922311	      0.00000000	      0.00000000
     39.57428571	     -4.31589151	     -4.66726650	     10.02334530	      0.89391671	      0.91763349	      0.54123468	      5.44791783	      6.35722430	    -15.18388764	     17.61305708	     17.61305708	     19.00618138	     -6.29901502	     -1.56488028	     28.47543369	     -9.23749573	      2.12544132	     18.71706515	     18.71706515	      3.16660474	     -0.96209279	      1.80270391	     -7.91279778	      3.86040651	      2.55615609	     53.54415673	    -17.87087345	    -10.29812875	     68.03321482	     45.07678517	      0.00000000	      0.00000000	    -12.82814018	     -9.08464065	     20.32071902	     28.49599952	     43.25997347	      0.00000000	      0.00000000
     39.59785714	     -4.27017140	     -4.78625114	      9.80116159	      0.89558139	      0.91752412	      0.53854610	      4.56895051	      6.44443812	    -15.18661453	     16.91025879	     16.91025879	     19.05666877	     -5.64596390	     -1.49792886	     28.24740608	     -9.22517218	      2.46683545	     19.36214990	     19.36214990	      2.69393945	     -1.94475153	      0.69222205	     -7.92304352	      3.76690077	      2.67611105	     53.39968643	    -17.60174725	    -10.01381363	     68.14654292	     45.06811308	      0.00000000	      0.00000000	    -12.23609664	     -9.29825866	     20.28600315	     28.20228979	     43.30724512	      0.00000000	      0.00000000
     39.62142857	     -4.30764518	     -4.82031860	      9.54228745	      0.89735232	      0.91752619	      0.53548463	      3.85063668	      6.36494296	    -15.13504051	     16.40794255	     16.40794255	     19.12513218	     -5.05221068	     -1.47219178	     28.01642702	     -9.10188732	      2.79767166	     19.87995856	     19.87995856	      2.32367938	     -2.95642099	     -0.11940708	     -7.86250125	      3.66218109	      2.79271067	     53.24992816	    -17.45386044	     -9.75933351	     68.19395676	     45.06361461	      0.00000000	      0.00000000	    -11.67891801	     -9.53333310	     20.20932626	     27.96356538	     43.36276756	      0.00000000	      0.00000000
